<svg xmlns="http://www.w3.org/2000/svg" width="40" height="40" viewBox="0 0 40 40">
  <g id="Fantasy_sport" data-name="Fantasy sport" transform="translate(-109 -82)">
    <rect id="Rectangle_6486" data-name="Rectangle 6486" width="40" height="40" transform="translate(109 82)" fill="none"/>
    <g id="Group_44210" data-name="Group 44210" transform="translate(111 87)">
      <g id="Group_44253" data-name="Group 44253">
        <path id="Path_29728" data-name="Path 29728" d="M135.034,35.395c0,.139,0,.277,0,.415a.748.748,0,0,0,0,.088V34.589Zm1.08-10.475q-.739-2.714-1.476-5.429a.192.192,0,0,0-.225-.162c-.789.006-1.579,0-2.369,0a.7.7,0,0,0-.081.005.094.094,0,0,0-.082.117,9,9,0,0,0,4.252,5.612c-.011-.083-.011-.116-.02-.146m6.728,7.164-.051-.07c-.047-.065-.1-.129-.141-.2a5.275,5.275,0,0,1-.81-2.345c-.017-.134-.064-.182-.2-.181-.468.007-.937.007-1.405,0-.139,0-.179.044-.19.181A4.559,4.559,0,0,1,139,32.134a.559.559,0,0,0-.049.1h3.814a.094.094,0,0,0,.076-.148m2.819,1.866a.576.576,0,0,0-.635-.582q-4.116,0-8.233,0a.582.582,0,0,0-.64.635c-.006.341,0,.683,0,1.024,0,.259,0,.26.267.26h9.148a.093.093,0,0,0,.088-.061c0-.01.006-.019.008-.028a.019.019,0,0,0,0-.007.129.129,0,0,0,0-.016c0-.408.015-.818,0-1.224m.843-16.51a34.245,34.245,0,0,0-11.2,0,.094.094,0,0,0-.077.107.757.757,0,0,0,.016.085q1.384,5.174,2.766,10.349a.233.233,0,0,0,.269.211q2.62-.012,5.241,0c.18,0,.237-.065.279-.224q1.276-4.788,2.56-9.575c.074-.275.143-.551.217-.836a.094.094,0,0,0-.075-.116m3.33,1.893h0c-.823,0-1.645,0-2.468,0-.153,0-.171.089-.2.194q-.72,2.645-1.441,5.29a.419.419,0,0,0-.01.041.093.093,0,0,0,.14.1,9.117,9.117,0,0,0,4.067-5.5.093.093,0,0,0-.088-.118m0,0h0c-.823,0-1.645,0-2.468,0-.153,0-.171.089-.2.194q-.72,2.645-1.441,5.29a.419.419,0,0,0-.01.041.093.093,0,0,0,.14.1,9.117,9.117,0,0,0,4.067-5.5.093.093,0,0,0-.088-.118M146.5,17.44a34.245,34.245,0,0,0-11.2,0,.094.094,0,0,0-.077.107.757.757,0,0,0,.016.085q1.384,5.174,2.766,10.349a.233.233,0,0,0,.269.211q2.62-.012,5.241,0c.18,0,.237-.065.279-.224q1.276-4.788,2.56-9.575c.074-.275.143-.551.217-.836a.094.094,0,0,0-.075-.116m-3.662,14.644-.051-.07c-.047-.065-.1-.129-.141-.2a5.275,5.275,0,0,1-.81-2.345c-.017-.134-.064-.182-.2-.181-.468.007-.937.007-1.405,0-.139,0-.179.044-.19.181A4.559,4.559,0,0,1,139,32.134a.559.559,0,0,0-.049.1h3.814a.094.094,0,0,0,.076-.148m2.819,1.866a.576.576,0,0,0-.635-.582q-4.116,0-8.233,0a.582.582,0,0,0-.64.635c-.006.341,0,.683,0,1.024,0,.259,0,.26.267.26h9.148a.093.093,0,0,0,.088-.061c0-.01.006-.019.008-.028a.019.019,0,0,0,0-.007.129.129,0,0,0,0-.016c0-.408.015-.818,0-1.224m-9.548-9.03q-.739-2.714-1.476-5.429a.192.192,0,0,0-.225-.162c-.789.006-1.579,0-2.369,0a.7.7,0,0,0-.081.005.094.094,0,0,0-.082.117,9,9,0,0,0,4.252,5.612c-.011-.083-.011-.116-.02-.146" transform="translate(-123.253 -15.869)" fill="#443535"/>
        <path id="Path_29729" data-name="Path 29729" d="M132.543,2.354c-.911,0-1.821,0-2.732,0h-.135a.093.093,0,0,1-.09-.12c.094-.312.184-.6.258-.889a.809.809,0,0,0,.014-.373.526.526,0,0,0-.49-.379,36.521,36.521,0,0,0-4.8-.553,35.521,35.521,0,0,0-4.113.05c-1.329.1-2.646.267-3.957.5a.579.579,0,0,0-.521.819c.072.25.15.5.223.748.008.027.014.055.022.086a.093.093,0,0,1-.091.114h-.145c-.877,0-1.755.009-2.631,0a.688.688,0,0,0-.737.424.1.1,0,0,0-.007.037v.171a.069.069,0,0,0,0,.02c.09.392.162.791.275,1.177a10.029,10.029,0,0,0,4.764,6.031c.225.131.457.252.694.36a.348.348,0,0,1,.212.264c.159.669.324,1.337.486,2.005.113.468.27.591.758.591h1.036a.094.094,0,0,1,.093.107c-.031.211-.054.406-.1.6a3.338,3.338,0,0,1-1.623,2.191.853.853,0,0,1-.407.05,1.761,1.761,0,0,0-1.215.441,1.543,1.543,0,0,0-.551,1.12c-.007.262-.009.525-.01.787v1.823h11.76v-.631c0-.048,0-.1,0-.159-.005-.615.022-1.233-.034-1.844a1.569,1.569,0,0,0-1.582-1.51,1.671,1.671,0,0,1-1.233-.621,3.811,3.811,0,0,1-.984-2.252.093.093,0,0,1,.094-.1h1.013a.6.6,0,0,0,.679-.538c.159-.648.327-1.295.472-1.946a.559.559,0,0,1,.336-.42,10.059,10.059,0,0,0,5.428-6.607c.075-.276.118-.561.168-.844a.566.566,0,0,0-.607-.717M113.877,3.586a.094.094,0,0,1,.082-.117.7.7,0,0,1,.081-.005c.789,0,1.579,0,2.369,0a.192.192,0,0,1,.225.162q.735,2.715,1.476,5.429c.008.03.008.063.02.146a9,9,0,0,1-4.252-5.612M127.022,17.5a.576.576,0,0,1,.635.582c.02.407.006.816,0,1.224a.125.125,0,0,1,0,.016.019.019,0,0,1,0,.007c0,.009,0,.018-.008.028a.093.093,0,0,1-.088.061h-9.148c-.266,0-.267,0-.267-.26,0-.341,0-.683,0-1.024a.582.582,0,0,1,.64-.635q4.116,0,8.233,0m-6.074-1.135a.562.562,0,0,1,.049-.1,4.559,4.559,0,0,0,1.041-2.661c.012-.136.052-.182.19-.181.468.008.937.007,1.405,0,.137,0,.184.046.2.181a5.275,5.275,0,0,0,.81,2.345c.045.067.094.13.141.2l.051.07a.094.094,0,0,1-.076.148ZM125.8,12.1c-.042.158-.1.224-.279.224q-2.62-.012-5.241,0a.233.233,0,0,1-.269-.211q-1.379-5.176-2.766-10.349a.758.758,0,0,1-.016-.085.094.094,0,0,1,.077-.107,34.245,34.245,0,0,1,11.2,0,.094.094,0,0,1,.075.116c-.074.286-.143.562-.217.836q-1.28,4.787-2.56,9.575m6.12-8.516a9.117,9.117,0,0,1-4.067,5.5.093.093,0,0,1-.14-.1.417.417,0,0,1,.01-.041q.72-2.646,1.441-5.29c.029-.1.047-.2.2-.194.823.008,1.645,0,2.468,0h0a.093.093,0,0,1,.088.118" transform="translate(-105.249 -0.001)" fill="#56b2b7"/>
        <path id="Path_29730" data-name="Path 29730" d="M194.332,17.455c-.084.322-.161.629-.243.936q-1.28,4.787-2.56,9.575c-.042.158-.1.224-.279.224q-2.62-.012-5.241,0a.233.233,0,0,1-.269-.211q-1.379-5.176-2.766-10.349c-.013-.051-.018-.1-.03-.177a34.241,34.241,0,0,1,11.388,0" transform="translate(-170.979 -15.867)" fill="#fff"/>
        <path id="Path_29731" data-name="Path 29731" d="M206.722,269.332a.127.127,0,0,1,0,.016.019.019,0,0,1,0,.007.121.121,0,0,1-.12.09h-9.124c-.266,0-.267,0-.267-.26,0-.341,0-.683,0-1.024a.581.581,0,0,1,.64-.635q4.116,0,8.233,0a.576.576,0,0,1,.635.582c.02.407.006.816,0,1.224" transform="translate(-184.309 -250.027)" fill="#fff"/>
        <path id="Path_29732" data-name="Path 29732" d="M135.784,58.639a9.008,9.008,0,0,1-4.28-5.717c.077-.007.133-.017.19-.017.789,0,1.579,0,2.369,0a.192.192,0,0,1,.225.162q.735,2.715,1.476,5.429c.009.03.009.063.02.146" transform="translate(-122.903 -49.442)" fill="#fff"/>
        <path id="Path_29733" data-name="Path 29733" d="M347.129,52.911a9.15,9.15,0,0,1-4.275,5.717c.022-.113.031-.184.049-.252q.72-2.646,1.441-5.29c.029-.1.047-.2.2-.194.823.008,1.646,0,2.468,0a1.135,1.135,0,0,1,.116.014" transform="translate(-320.431 -49.432)" fill="#fff"/>
        <path id="Path_29734" data-name="Path 29734" d="M244.05,208.191h-4a.561.561,0,0,1,.049-.1,4.559,4.559,0,0,0,1.041-2.661c.012-.136.052-.182.19-.181.468.008.937.007,1.405,0,.137,0,.184.046.2.181a5.275,5.275,0,0,0,.81,2.345c.045.067.094.13.141.2l.158.218" transform="translate(-224.354 -191.828)" fill="#fff"/>
        <path id="Path_29758" data-name="Path 29758" d="M9383.371-610.244a22.842,22.842,0,0,1,3.678-.373,17.4,17.4,0,0,1,4.158.373l-2.124,8.21h-3.638l-.376-1.633a4.5,4.5,0,0,0,.7-.047c.266-.128.387-.262.369-.548-.094-.715-1.349-.486-1.349-.486l-.359-1.173s1.5.005,1.786,0,.631-.115.647-.46a.5.5,0,0,0-.5-.539c-.269-.023-2.158-.035-2.158-.035Z" transform="translate(-9369.631 612.942)" fill="#ffaa5d"/>
      </g>
      <g id="Group_44252" data-name="Group 44252">
        <rect id="Rectangle_6478" data-name="Rectangle 6478" width="11.772" height="9.62" transform="translate(11.772 20.554)" fill="#56b2b7"/>
        <rect id="Rectangle_6479" data-name="Rectangle 6479" width="11.772" height="8.31" transform="translate(23.544 21.862)" fill="#ffaa5d"/>
        <rect id="Rectangle_6480" data-name="Rectangle 6480" width="11.772" height="7" transform="translate(0 23.17)" fill="#ffaa5d"/>
      </g>
    </g>
  </g>
</svg>
