<svg xmlns="http://www.w3.org/2000/svg" width="40" height="40" viewBox="0 0 40 40">
  <g id="Auctions" transform="translate(-235 -82)">
    <rect id="Rectangle_6490" data-name="Rectangle 6490" width="40" height="40" transform="translate(235 82)" fill="none"/>
    <g id="Group_44255" data-name="Group 44255" transform="translate(-5907.51 3846.978)">
      <path id="Path_29799" data-name="Path 29799" d="M97.31,8.909l-.048.037-.032.027c-.011.009-.022.019-.033.029-.033.03-.068.062-.1.1-.5.505-1.007,1.013-1.488,1.5L93.267,8.265,94.55,6.984c.471.352.612.341,1.055-.1q.6-.6,1.2-1.2c.408-.408.405-.627-.01-1.043-.4-.4-.8-.8-1.2-1.2L92.12,0h-.363c-.5.485-1,.963-1.482,1.459a1.21,1.21,0,0,0-.37.559c-.03.18.127.391.194.567l-4.391,4.39c-.387-.32-.6-.345-.9-.054q-.737.717-1.455,1.456a.505.505,0,0,0-.011.8q2.283,2.3,4.579,4.581a.517.517,0,0,0,.8,0q.75-.727,1.477-1.477a.529.529,0,0,0,.015-.784c-.036-.045-.069-.092-.078-.106l1.291-1.287,2.334,2.327-.5.5c-.346.345-.7.693-1.044,1.043a1.414,1.414,0,0,0-.192.231L94.034,12.2l3.321-3.32ZM91.915,1.3l3.891,3.889-.727.7L91.2,2.019ZM88.35,12.652,84.475,8.778l.746-.733,3.861,3.867Zm1.01-2.129L86.578,7.737l4.348-4.348,2.786,2.782Zm5.17,1.075L92.206,9.273l.242-.186,2.323,2.335-.241.176Zm.6,1.724a2.467,2.467,0,0,0-.194-.175l.421.44A3.245,3.245,0,0,0,95.133,13.322Zm.362.408.019.019.049-.049Zm5.419,5.41-.171.165a.734.734,0,0,1,.205-.131Z" transform="translate(6070.561 -3762)" fill="#56b2b7"/>
      <path id="Path_29800" data-name="Path 29800" d="M260.4,228.218l-.171.165,0,0c-.022.019-.043.04-.065.063-.5.525-1.021,1.033-1.537,1.545-.354.352-.606.355-.956.006l-1.024-1.024.768-.768.71.733,1.5-1.5Z" transform="translate(5911.078 -3971.079)" fill="#56b2b7"/>
      <path id="Path_29801" data-name="Path 29801" d="M238.9,218.332l-.769.769-.741-.74.781-.781Z" transform="translate(5928.774 -3962.015)" fill="#56b2b7"/>
      <path id="Path_29802" data-name="Path 29802" d="M219.514,198.943l-.77.77L218,198.97l.78-.78Z" transform="translate(5946.599 -3944.19)" fill="#56b2b7"/>
      <path id="Path_29803" data-name="Path 29803" d="M194.09,161.224l-.739.713.738.756.644-.61-1.4,1.4-.769-.77-.281-.281c-.283-.283-.344-.492-.185-.746l1.255-1.255.729.764.752.787-.009.009Z" transform="translate(5970.49 -3909.479)" fill="#56b2b7"/>
      <path id="Path_29804" data-name="Path 29804" d="M222.778,111.245v7.568a.778.778,0,0,1-.744.354c-1.806-.006-3.612,0-5.418-.009a.8.8,0,0,0-.329.058l-.034-.034,1.116-1.078h4.358v-6.185h-.345c-1.736,0-3.473-.055-5.2.022a2.464,2.464,0,0,1-2.331-.973,9.277,9.277,0,0,0-.83-.88l-1.466,1.466-.731.731-.718.718-.022.022-.731.731L208.62,113l.753-.753,3.321-3.32a.6.6,0,0,1,.052-.031h0l.05-.024a.3.3,0,0,1,.034-.013l.025-.008h0l.033-.007.019,0,.022,0,.03,0a.282.282,0,0,1,.045,0,.292.292,0,0,1,.045.008.448.448,0,0,1,.061.019.946.946,0,0,1,.266.178c.024.021.049.044.075.069l.039.038.234.234c.247.248.492.5.741.743.085.085.17.169.256.252.111.11.224.218.337.326a.71.71,0,0,0,.44.181q3.268.017,6.536,0A.773.773,0,0,1,222.778,111.245Z" transform="translate(5955.222 -3862.044)" fill="#56b2b7"/>
      <path id="Path_29805" data-name="Path 29805" d="M217.15,159.244l-1.116,1.078-.778-.778.812-.814c-.235-.241-.493-.5-.71-.727-.734.734-1.469,1.467-2.184,2.18l-.9.9-.813-.813.769-.769.174-.174,2.119-2.115-.719-.765-2.092,2.091-.211.211-.781.781-.822-.823.881-.881,2.185-2.189-.743-.748-2.122,2.13-.165.165-.78.78-.777-.777,1.406-1.406.088-.083,0,0,.009-.009-.752-.787.731-.731c.061.052.129.106.2.163l.421.44,0,0,.117.147.016-.007.019.019.049-.049a.148.148,0,0,0,.046-.023c.33-.327.658-.655.987-.982.4-.4.621-.4,1.021,0q2.174,2.171,4.344,4.344C217.463,158.608,217.476,158.769,217.15,159.244Z" transform="translate(5955.442 -3903.183)" fill="#ffaa5d"/>
      <path id="Path_29806" data-name="Path 29806" d="M0,282.128c.013-.464.44-.579.75-.578q5.963.006,11.926,0c.6,0,.76.162.76.749,0,2.26,0,4.52,0,6.78,0,.32-.011.662-.473.738,0,0-11.511.051-12.239,0A.7.7,0,0,1,0,289.157Zm1.042,6.635H12.379v-6.15H1.042Z" transform="translate(6147 -4020.821)" fill="#ffaa5d"/>
      <path id="Path_29807" data-name="Path 29807" d="M195.8,346.488a2.839,2.839,0,0,1-.538,1.176,2.439,2.439,0,0,1-1.622,1.013c-.031.008-.061.015-.091.021l-.022,0a.365.365,0,0,1-.06.006H179.574a.3.3,0,0,1-.3-.305l0-.726.012-1.769a.3.3,0,0,1,.3-.295q7.745,0,15.491,0a.857.857,0,0,1,.533.137.718.718,0,0,1,.142.153A.857.857,0,0,1,195.8,346.488Z" transform="translate(5982.202 -4079.709)" fill="#56b2b7"/>
      <path id="Path_29808" data-name="Path 29808" d="M357.8,356.49v2.221h-2.3l.027-.006.022,0c.031-.006.061-.013.091-.021a2.44,2.44,0,0,0,1.622-1.013A2.839,2.839,0,0,0,357.8,356.49Z" transform="translate(5820.199 -4089.711)" fill="#fff"/>
      <path id="Path_29809" data-name="Path 29809" d="M179.43,256.03h13.42v-6.17h1.033v6.467c0,.579-.158.739-.734.739H179.43Z" transform="translate(5982.055 -3991.689)" fill="#56b2b7"/>
      <path id="Path_29810" data-name="Path 29810" d="M115.53,193h-5.659v2.05h-1.033c0-.876-.012-1.74.007-2.6a.489.489,0,0,1,.535-.469c.262-.01.524,0,.786,0h5.364V193Z" transform="translate(6046.953 -3938.472)" fill="#56b2b7"/>
      <path id="Path_29812" data-name="Path 29812" d="M111.67,247.308l1.47-1.468.658.662-1.486,1.491Z" transform="translate(6044.345 -3987.994)" fill="#56b2b7"/>
      <path id="Path_29813" data-name="Path 29813" d="M29.918,248.353l-1.5-1.5.656-.643,1.489,1.488-.647.655Z" transform="translate(6120.875 -3988.334)" fill="#56b2b7"/>
      <path id="Path_29814" data-name="Path 29814" d="M77,245.364V243.33h.993v2.034Z" transform="translate(6076.216 -3985.686)" fill="#56b2b7"/>
      <path id="Path_29816" data-name="Path 29816" d="M238.358,126.271v6.185H234c.326-.475.313-.636-.069-1.019q-2.171-2.172-4.344-4.344c-.4-.4-.622-.4-1.021,0-.329.327-.657.655-.987.982a.148.148,0,0,1-.046.023l-.068.03-.016.007-.117-.147,0,0a3.247,3.247,0,0,0-.227-.265,2.465,2.465,0,0,0-.194-.175c-.069-.057-.137-.111-.2-.163l.022-.022,2.916-2.916a9.284,9.284,0,0,1,.83.88,2.464,2.464,0,0,0,2.331.973c1.732-.077,3.469-.022,5.2-.022Z" transform="translate(5938.592 -3876.394)" fill="#fff"/>
      <path id="Path_29817" data-name="Path 29817" d="M129.957,41.98l2.786,2.782-4.352,4.353-2.781-2.786,4.348-4.348Z" transform="translate(6031.53 -3800.591)" fill="#fff"/>
      <path id="Path_29818" data-name="Path 29818" d="M187.483,20.029l-.726.7-3.877-3.871.712-.716Z" transform="translate(5978.884 -3776.837)" fill="#fff"/>
      <path id="Path_29819" data-name="Path 29819" d="M104.147,103.518l-.733.739-3.874-3.873.746-.734,3.861,3.867Z" transform="translate(6055.496 -3853.606)" fill="#fff"/>
      <path id="Path_29820" data-name="Path 29820" d="M269.174,209.077l-.812.814-1.5,1.5-.71-.733.131-.131c.714-.714,1.45-1.447,2.184-2.18C268.681,208.573,268.939,208.836,269.174,209.077Z" transform="translate(5902.336 -3953.53)" fill="#fff"/>
      <path id="Path_29821" data-name="Path 29821" d="M250.082,189.835l-2.119,2.115-.174.174-.729-.752.211-.211,2.092-2.091Z" transform="translate(5919.885 -3935.807)" fill="#fff"/>
      <path id="Path_29822" data-name="Path 29822" d="M230.69,170.508,228.5,172.7l-.111.111-.734-.753.165-.165,2.122-2.13.743.748Z" transform="translate(5937.719 -3918.056)" fill="#fff"/>
      <path id="Path_29823" data-name="Path 29823" d="M197.866,114.9l-.241.176q-1.141-1.142-2.324-2.325l.243-.186Z" transform="translate(5967.467 -3865.482)" fill="#fff"/>
      <path id="Path_29824" data-name="Path 29824" d="M210.077,171.029l-.088.083-.006.006-.644.61-.738-.756.739-.713.735.766Z" transform="translate(5955.24 -3918.515)" fill="#fff"/>
      <path id="Path_29825" data-name="Path 29825" d="M12.91,301.157V294.72H24.775v6.437Z" transform="translate(6134.868 -4033.071)" fill="#ffaa5d"/>
      <line id="Line_7033" data-name="Line 7033" x1="0.731" y2="0.731" transform="translate(6166.042 -3750.488)" fill="none"/>
      <line id="Line_7034" data-name="Line 7034" x1="0.086" y2="0.086" transform="translate(6165.229 -3747.489)" fill="none"/>
      <line id="Line_7035" data-name="Line 7035" x1="0.065" y2="0.063" transform="translate(6171.236 -3742.692)" fill="none"/>
      <line id="Line_7036" data-name="Line 7036" x1="0.019" y1="0.019" transform="translate(6163.823 -3749.068)" fill="none"/>
      <path id="Path_29826" data-name="Path 29826" d="M218.856,152.049l-.177-.185-.729-.764" transform="translate(5946.645 -3900.902)" fill="none"/>
      <line id="Line_7037" data-name="Line 7037" x1="0.133" y1="0.14" transform="translate(6165.924 -3748.41)" fill="none"/>
    </g>
  </g>
</svg>
