<svg xmlns="http://www.w3.org/2000/svg" width="40.001" height="40" viewBox="0 0 40.001 40">
  <g id="Raffles" transform="translate(-176.999 -82)">
    <rect id="Rectangle_6488" data-name="Rectangle 6488" width="40" height="40" transform="translate(177 82)" fill="none"/>
    <g id="Group_44206" data-name="Group 44206" transform="translate(177 88.669)">
      <path id="Path_29704" data-name="Path 29704" d="M11.415,2.345c-.942-.082-1.146-.192-1.148-.6s.19-.511,1.149-.6c0-.176-.008-.36,0-.543a.583.583,0,0,1,.589-.6.575.575,0,0,1,.56.586c.01.175,0,.352,0,.58.217,0,.4-.007.585,0a.576.576,0,0,1,.582.565.584.584,0,0,1-.572.578c-.177.011-.354,0-.592,0,0,.167,0,.316,0,.465-.01.446-.224.7-.59.688s-.56-.257-.566-.681c0-.143,0-.286,0-.447" transform="translate(-7.938 -0.006)" fill="#ffaa5d"/>
      <g id="Group_44254" data-name="Group 44254">
        <path id="Path_29706" data-name="Path 29706" d="M136.554,3.75a.619.619,0,0,1-.9.115.524.524,0,0,1-.127-.6,4.4,4.4,0,0,1,.295-.522c.474-.792.946-1.585,1.425-2.374a.589.589,0,0,1,.84-.282.588.588,0,0,1,.153.873c-.545.918-1.088,1.837-1.652,2.743a.581.581,0,0,1-.034.048" transform="translate(-104.754 -0.001)" fill="#56b2b7"/>
        <path id="Path_29707" data-name="Path 29707" d="M102.41.98a.587.587,0,1,1,.987-.6q.82,1.355,1.629,2.718a2.088,2.088,0,0,1,.131.306.578.578,0,0,1-.394.625.544.544,0,0,1-.667-.245" transform="translate(-79.081 -0.002)" fill="#56b2b7"/>
        <path id="Path_29708" data-name="Path 29708" d="M123.837,3.39c-.005.412-.237.668-.588.664a.571.571,0,0,1-.567-.645q-.012-1.385,0-2.77A.579.579,0,0,1,123.265,0a.593.593,0,0,1,.572.65" transform="translate(-94.854 -0.003)" fill="#56b2b7"/>
      </g>
      <path id="Path_29709" data-name="Path 29709" d="M53.818,50.46H63.6V30.8H53.818Zm7.48-12.5q-1.348,2.715-2.658,5.448c-.132.272-.277.429-.6.379a4.648,4.648,0,0,0-.6,0c.994-2.039,1.955-4.01,2.93-6.015H57.147v.948h-.835V36.9h5.117a1.852,1.852,0,0,1-.131,1.057" transform="translate(-41.612 -23.813)" fill="#fff"/>
      <path id="Path_29710" data-name="Path 29710" d="M5.167,50.424h9.825V30.758H5.167ZM12.683,37.9q-1.354,2.732-2.676,5.484c-.132.274-.277.424-.6.376a4.618,4.618,0,0,0-.6,0c.989-2.028,1.951-4,2.935-6.024H8.519v.966H7.687V36.877h5.108a1.78,1.78,0,0,1-.111,1.018" transform="translate(-3.995 -23.782)" fill="#fff"/>
      <path id="Path_29711" data-name="Path 29711" d="M102.358,45.793h9.814V30.758h-9.814Zm7.494-12.522Q108.5,36,107.18,38.753c-.134.279-.286.415-.6.37a4.6,4.6,0,0,0-.594,0c.989-2.028,1.951-4,2.933-6.017h-3.232v.944h-.823v-1.8h5.11a1.736,1.736,0,0,1-.122,1.027" transform="translate(-79.142 -23.782)" fill="#ffaa5d"/>
      <rect id="Rectangle_6476" data-name="Rectangle 6476" width="9.818" height="3.407" transform="translate(23.204 23.236)" fill="#fff"/>
      <path id="Path_29712" data-name="Path 29712" d="M65.95,64.6l2.931-6.016H65.653v.948h-.834V57.719h5.117a1.85,1.85,0,0,1-.132,1.058q-1.349,2.714-2.659,5.447c-.131.273-.275.428-.6.379a4.368,4.368,0,0,0-.6,0" transform="translate(-50.118 -44.628)" fill="#56b2b7"/>
      <path id="Path_29713" data-name="Path 29713" d="M20.342,58.591h-3.23v.967H16.28V57.742h5.107a1.766,1.766,0,0,1-.112,1.017q-1.354,2.735-2.675,5.485c-.132.274-.278.425-.6.377a4.442,4.442,0,0,0-.6,0l2.935-6.025" transform="translate(-12.588 -44.646)" fill="#56b2b7"/>
      <path id="Path_29714" data-name="Path 29714" d="M114.529,44.181l2.932-6.017h-3.232v.943h-.823v-1.8h5.11a1.729,1.729,0,0,1-.122,1.027q-1.353,2.733-2.673,5.483c-.134.279-.284.415-.6.37a4.693,4.693,0,0,0-.595,0" transform="translate(-87.685 -28.845)" fill="#fff"/>
      <path id="Path_29715" data-name="Path 29715" d="M39.874,33.075a2.3,2.3,0,1,0-3.021,2.683c.079.032.193.116.2.181.018.356.009.714.009,1.082H34.2V26.173a.621.621,0,0,0-.372-.583,1.151,1.151,0,0,0-.438-.073q-16.3.01-32.594,0c-.612,0-.794.186-.794.8q0,10.22,0,20.44a.8.8,0,0,0,.794.794q16.3,0,32.594.007a1.577,1.577,0,0,0,.261-.02.682.682,0,0,0,.549-.674V38.194h.349c.971,0,1.941,0,2.912,0,.56,0,.753-.2.755-.764,0-.447.009-.894,0-1.34a.306.306,0,0,1,.236-.352A2.238,2.238,0,0,0,39.879,34.1c.014-.054.037-.109.054-.166v-.669c-.02-.064-.043-.127-.059-.193M11,46.373H1.172V26.706H11Zm10.991,0H12.206V26.716h9.782Zm11.034,0H23.2V42.966h9.818Zm.007-4.631H23.215V26.706h9.814Zm4.618-6.99a1.15,1.15,0,1,1,1.141-1.159,1.165,1.165,0,0,1-1.141,1.159" transform="translate(0 -19.73)" fill="#56b2b7"/>
    </g>
  </g>
</svg>
