<svg xmlns="http://www.w3.org/2000/svg" xmlns:xlink="http://www.w3.org/1999/xlink" width="40" height="40" viewBox="0 0 40 40">
  <defs>
    <clipPath id="clip-path">
      <rect id="Rectangle_6484" data-name="Rectangle 6484" width="24.445" height="5.743" rx="1" transform="translate(0 0)" fill="#56b2b7" stroke="#707070" stroke-width="1"/>
    </clipPath>
  </defs>
  <g id="Scratch_cards" data-name="Scratch cards" transform="translate(-43.144 -82.144)">
    <rect id="Rectangle_6487" data-name="Rectangle 6487" width="40" height="40" transform="translate(43.144 82.144)" fill="none"/>
    <g id="Group_44239" data-name="Group 44239" transform="translate(48.594 88.144)">
      <g id="Rectangle_6483" data-name="Rectangle 6483" transform="translate(-0.45 0)" fill="none" stroke="#56b2b7" stroke-width="1">
        <rect width="30" height="30" rx="2" stroke="none"/>
        <rect x="0.5" y="0.5" width="29" height="29" rx="1.5" fill="none"/>
      </g>
      <g id="Group_44247" data-name="Group 44247" transform="translate(2.242 3.339)">
        <g id="Group_44248" data-name="Group 44248" transform="translate(-6727.311 16.446)">
          <g id="Group_44232" data-name="Group 44232" transform="translate(6744.884)">
            <rect id="Rectangle_6485" data-name="Rectangle 6485" width="6.872" height="6.875" rx="1" transform="translate(0 0)" fill="#ffaa5d"/>
            <g id="Page-1" transform="translate(1.326 1.429)">
              <g id="Dribbble-Light-Preview">
                <g id="icons">
                  <path id="star_favorite-_1499_" data-name="star_favorite-[#1499]" d="M46.527,162.452a.377.377,0,0,0-.11.335l.136.787a.381.381,0,0,1-.554.4l-.712-.371a.386.386,0,0,0-.355,0l-.712.371a.381.381,0,0,1-.554-.4l.136-.787a.377.377,0,0,0-.11-.335l-.576-.557a.378.378,0,0,1,.212-.646l.8-.115a.381.381,0,0,0,.287-.207l.356-.716a.383.383,0,0,1,.685,0l.356.716a.381.381,0,0,0,.287.207l.8.115a.378.378,0,0,1,.212.646Z" transform="translate(-43 -160)" fill="#fff" fill-rule="evenodd"/>
                </g>
              </g>
            </g>
          </g>
          <g id="Group_44231" data-name="Group 44231" transform="translate(6736.183)">
            <rect id="Rectangle_6485-2" data-name="Rectangle 6485" width="6.872" height="6.875" rx="1" transform="translate(0 0)" fill="#ffaa5d"/>
            <g id="Page-1-2" data-name="Page-1" transform="translate(1.326 1.429)">
              <g id="Dribbble-Light-Preview-2" data-name="Dribbble-Light-Preview">
                <g id="icons-2" data-name="icons">
                  <path id="star_favorite-_1499_2" data-name="star_favorite-[#1499]" d="M46.527,162.452a.377.377,0,0,0-.11.335l.136.787a.381.381,0,0,1-.554.4l-.712-.371a.386.386,0,0,0-.355,0l-.712.371a.381.381,0,0,1-.554-.4l.136-.787a.377.377,0,0,0-.11-.335l-.576-.557a.378.378,0,0,1,.212-.646l.8-.115a.381.381,0,0,0,.287-.207l.356-.716a.383.383,0,0,1,.685,0l.356.716a.381.381,0,0,0,.287.207l.8.115a.378.378,0,0,1,.212.646Z" transform="translate(-43 -160)" fill="#fff" fill-rule="evenodd"/>
                </g>
              </g>
            </g>
          </g>
          <g id="Group_44230" data-name="Group 44230" transform="translate(6727.311)">
            <rect id="Rectangle_6485-3" data-name="Rectangle 6485" width="6.872" height="6.875" rx="1" transform="translate(0 0)" fill="#ffaa5d"/>
            <g id="Page-1-3" data-name="Page-1" transform="translate(1.326 1.429)">
              <g id="Dribbble-Light-Preview-3" data-name="Dribbble-Light-Preview">
                <g id="icons-3" data-name="icons">
                  <path id="star_favorite-_1499_3" data-name="star_favorite-[#1499]" d="M46.527,162.452a.377.377,0,0,0-.11.335l.136.787a.381.381,0,0,1-.554.4l-.712-.371a.386.386,0,0,0-.355,0l-.712.371a.381.381,0,0,1-.554-.4l.136-.787a.377.377,0,0,0-.11-.335l-.576-.557a.378.378,0,0,1,.212-.646l.8-.115a.381.381,0,0,0,.287-.207l.356-.716a.383.383,0,0,1,.685,0l.356.716a.381.381,0,0,0,.287.207l.8.115a.378.378,0,0,1,.212.646Z" transform="translate(-43 -160)" fill="#fff" fill-rule="evenodd"/>
                </g>
              </g>
            </g>
          </g>
        </g>
        <g id="Group_44240" data-name="Group 44240" transform="translate(-6727.311 7.657)">
          <g id="Group_44232-2" data-name="Group 44232" transform="translate(6745.055)">
            <rect id="Rectangle_6485-4" data-name="Rectangle 6485" width="6.872" height="6.875" rx="1" transform="translate(0 0)" fill="#ffaa5d"/>
            <g id="Page-1-4" data-name="Page-1" transform="translate(1.326 1.429)">
              <g id="Dribbble-Light-Preview-4" data-name="Dribbble-Light-Preview">
                <g id="icons-4" data-name="icons">
                  <path id="star_favorite-_1499_4" data-name="star_favorite-[#1499]" d="M46.527,162.452a.377.377,0,0,0-.11.335l.136.787a.381.381,0,0,1-.554.4l-.712-.371a.386.386,0,0,0-.355,0l-.712.371a.381.381,0,0,1-.554-.4l.136-.787a.377.377,0,0,0-.11-.335l-.576-.557a.378.378,0,0,1,.212-.646l.8-.115a.381.381,0,0,0,.287-.207l.356-.716a.383.383,0,0,1,.685,0l.356.716a.381.381,0,0,0,.287.207l.8.115a.378.378,0,0,1,.212.646Z" transform="translate(-43 -160)" fill="#fff" fill-rule="evenodd"/>
                </g>
              </g>
            </g>
          </g>
          <g id="Group_44231-2" data-name="Group 44231" transform="translate(6736.183)">
            <rect id="Rectangle_6485-5" data-name="Rectangle 6485" width="6.872" height="6.875" rx="1" transform="translate(0 0)" fill="#ffaa5d"/>
            <g id="Page-1-5" data-name="Page-1" transform="translate(1.326 1.429)">
              <g id="Dribbble-Light-Preview-5" data-name="Dribbble-Light-Preview">
                <g id="icons-5" data-name="icons">
                  <path id="star_favorite-_1499_5" data-name="star_favorite-[#1499]" d="M46.527,162.452a.377.377,0,0,0-.11.335l.136.787a.381.381,0,0,1-.554.4l-.712-.371a.386.386,0,0,0-.355,0l-.712.371a.381.381,0,0,1-.554-.4l.136-.787a.377.377,0,0,0-.11-.335l-.576-.557a.378.378,0,0,1,.212-.646l.8-.115a.381.381,0,0,0,.287-.207l.356-.716a.383.383,0,0,1,.685,0l.356.716a.381.381,0,0,0,.287.207l.8.115a.378.378,0,0,1,.212.646Z" transform="translate(-43 -160)" fill="#fff" fill-rule="evenodd"/>
                </g>
              </g>
            </g>
          </g>
          <g id="Group_44230-2" data-name="Group 44230" transform="translate(6727.311)">
            <rect id="Rectangle_6485-6" data-name="Rectangle 6485" width="6.872" height="6.875" rx="1" transform="translate(0 0)" fill="#ffaa5d"/>
            <g id="Page-1-6" data-name="Page-1" transform="translate(1.326 1.429)">
              <g id="Dribbble-Light-Preview-6" data-name="Dribbble-Light-Preview">
                <g id="icons-6" data-name="icons">
                  <path id="star_favorite-_1499_6" data-name="star_favorite-[#1499]" d="M46.527,162.452a.377.377,0,0,0-.11.335l.136.787a.381.381,0,0,1-.554.4l-.712-.371a.386.386,0,0,0-.355,0l-.712.371a.381.381,0,0,1-.554-.4l.136-.787a.377.377,0,0,0-.11-.335l-.576-.557a.378.378,0,0,1,.212-.646l.8-.115a.381.381,0,0,0,.287-.207l.356-.716a.383.383,0,0,1,.685,0l.356.716a.381.381,0,0,0,.287.207l.8.115a.378.378,0,0,1,.212.646Z" transform="translate(-43 -160)" fill="#fff" fill-rule="evenodd"/>
                </g>
              </g>
            </g>
          </g>
        </g>
        <g id="Mask_Group_41" data-name="Mask Group 41" transform="translate(0 0)" clip-path="url(#clip-path)">
          <path id="Path_29757" data-name="Path 29757" d="M86.428,204.937c-.046.026-.09.052-.134.078h5.215a4.667,4.667,0,0,0-5.084-.078Zm1.58-6.864H86.1c-.723.416-1.4.772-1.962,1.054a1.47,1.47,0,0,0-.134.605V200c.674-.337,1.52-.781,2.428-1.313a5.214,5.214,0,0,1,1.58-.617Zm9.411,0H95.888a2.4,2.4,0,0,1-.819.233,2.374,2.374,0,0,1-1.064-.233H92.759a3.691,3.691,0,0,0,2.308,1.04,6.823,6.823,0,0,0,2.347-1.04Zm12.05.586a1.954,1.954,0,0,0-.862-.506,4.074,4.074,0,0,1-1.274.15,3.232,3.232,0,0,1-1.026-.233h-1.4a4.615,4.615,0,0,0,2.423,1.04,4.847,4.847,0,0,0,2.137-.453Zm-23.041,4.58c-.739.437-1.438.812-2.038,1.118a1.871,1.871,0,0,0,.726.506c.412-.221.854-.468,1.313-.736a4.643,4.643,0,0,1,5.187.154c.3.226.6.482.909.734h1.25a18.841,18.841,0,0,1-2.158-1.622,4.652,4.652,0,0,0-5.187-.154Zm23.444-3.882a5.248,5.248,0,0,1-2.54.643c-1.427-.076-2.5-1.159-3.654-1.928H99.042c-1.583.788-3.143,1.9-3.973,1.928-1.277.038-2.341-1.121-3.4-1.928H89.874a4.438,4.438,0,0,1,1.741.769c1.078.81,2.158,2.006,3.454,1.968s4.374-2.738,6.532-2.7,3.509,2.583,5.727,2.7a5.287,5.287,0,0,0,2.592-.667v-.408a1.438,1.438,0,0,0-.052-.375Zm-2.54,4.3c-2.216-.114-3.564-2.659-5.727-2.7s-5.239,2.659-6.532,2.7-2.377-1.156-3.454-1.966a4.643,4.643,0,0,0-5.187-.154c-.909.534-1.755.981-2.428,1.315v.5a1.366,1.366,0,0,0,.049.366c.666-.332,1.493-.769,2.379-1.289a4.647,4.647,0,0,1,5.187.154c1.078.81,2.158,2.006,3.454,1.968s4.374-2.738,6.532-2.7,3.509,2.581,5.727,2.7a5.141,5.141,0,0,0,2.464-.605,1.462,1.462,0,0,0,.128-.594V203a5.286,5.286,0,0,1-2.592.667Zm0-1.966c-2.216-.116-3.564-2.664-5.727-2.7s-5.239,2.659-6.532,2.7-2.377-1.159-3.454-1.968a4.652,4.652,0,0,0-5.187-.154c-.909.532-1.755.978-2.428,1.313v.886c.674-.335,1.52-.779,2.428-1.311a4.639,4.639,0,0,1,5.187.154c1.078.81,2.158,2,3.454,1.966s4.374-2.738,6.532-2.7,3.509,2.583,5.727,2.7a5.286,5.286,0,0,0,2.592-.667v-.888a5.316,5.316,0,0,1-2.592.67Zm-8.052,3.315H103.5a3.659,3.659,0,0,0-1.9-.655A5.509,5.509,0,0,0,99.28,205.011Zm-3.141,0h1.618a8.716,8.716,0,0,1,3.845-1.465,5.5,5.5,0,0,1,3.037,1.465h1.4c-1.522-.724-2.723-2.322-4.434-2.351-1.689-.031-3.943,1.617-5.466,2.351Z" transform="translate(-84.399 -198.674)" fill="#56b2b7"/>
        </g>
      </g>
    </g>
  </g>
</svg>
